<?xml version="1.0" encoding="utf-8"?>
<!-- Generator: Adobe Illustrator 21.0.0, SVG Export Plug-In . SVG Version: 6.00 Build 0)  -->
<svg version="1.1" id="Layer_1" xmlns="http://www.w3.org/2000/svg" xmlns:xlink="http://www.w3.org/1999/xlink" x="0px" y="0px"
	 viewBox="0 0 177 120.1" style="enable-background:new 0 0 177 120.1;" xml:space="preserve">
<style type="text/css">
	.st0{fill:#22B573;}
	.st1{fill:#FFFFFF;}
</style>
<title>Asset 1</title>
<g id="Layer_2">
	<g id="Слой_1">
		<path class="st0" d="M175.7,85.8c3.3-8.2,0.4-17.5-7.6-21.3c-1.2-0.6-2.5-1-3.9-1.2c1.8-4.5,1.1-14.5-6.2-19.1
			c-7.7-4.8-14,1.3-15.5,0.9c4-16.9,0.4-31.6-19.7-41.9c-17.4-8.9-44.6,2.1-59.9,18c-10-6.3-23.2-3.4-29.6,6.6
			c-3.6,5.6-4.3,12.5-2.1,18.8C19.1,47.7,8.5,55,3.3,66c-8.1,17-0.7,37.1,16.2,45.5C65.7,134.2,167,107.3,175.7,85.8z"/>
		<path class="st1" d="M124.4,18.4c0-0.5-0.3-1-0.7-1.1c-0.2,0-0.3,0-0.5,0.1l-16.3,11.8c-0.9,0.7-1.2,2.2-0.7,3.4
			c0.2,0.3,0.4,0.6,0.7,0.8l2,1.5c-20.2,35.1-47,62-81.6,69.1c-5.2,1.1-10.5,1.7-15.7,2c0.6,0.8,1.3,1.5,2,2.2
			c4.7-0.3,9.4-1,14.1-1.9c18.2-3.7,35.5-12,51-24.4c13.9-11.2,28.5-24.3,38.6-40.8l2.2,1.6c0.9,0.7,2.2,0.3,2.7-0.8
			c0.2-0.3,0.2-0.7,0.3-1L124.4,18.4z"/>
	</g>
</g>
</svg>
